<svg xmlns="http://www.w3.org/2000/svg" width="1024" height="1024" viewBox="0 0 1024 1024" version="1.1">
	<path d="M 272.500 132.691 C 232.799 136.413, 193.767 157.272, 168.848 188.084 C 151.938 208.994, 142.395 229.121, 136.773 255.737 L 134.500 266.500 134.500 513 C 134.500 747.541, 134.588 759.935, 136.322 768.464 C 140.572 789.366, 147.598 806.412, 158.918 823.278 C 184.434 861.297, 226.038 886.503, 270.729 891.021 C 278.273 891.784, 352.652 892.006, 519 891.765 L 756.500 891.420 766.443 889.228 C 814.442 878.645, 852.955 848.988, 874.465 806.047 C 880.359 794.281, 883.353 785.540, 886.668 770.417 L 889.500 757.500 889.500 514 C 889.500 284.710, 889.396 269.919, 887.716 260.549 C 881.691 226.946, 867.993 200.866, 843.551 176.468 C 822.066 155.020, 794.951 140.327, 765.736 134.302 C 758.132 132.734, 739.038 132.593, 517 132.460 C 384.725 132.381, 274.700 132.485, 272.500 132.691 M 260.500 157.987 C 248.603 160.157, 240.328 162.840, 229.500 168.038 C 198.171 183.079, 172.401 213.696, 162.616 247.500 C 156.662 268.071, 156.927 254.600, 157.280 518.751 C 157.579 743.268, 157.725 760.999, 159.321 767.500 C 165.506 792.689, 175.557 811.313, 192.462 828.906 C 204.201 841.124, 214.678 848.794, 229.500 856.023 C 242.229 862.231, 252.028 865.344, 265.949 867.604 C 278.683 869.671, 744.317 869.671, 757.051 867.604 C 770.830 865.367, 780.705 862.234, 793.500 856.039 C 813.396 846.407, 827.835 834.683, 840.482 817.895 C 852.326 802.172, 860.823 783.333, 864.747 764.094 C 866.389 756.043, 866.500 740.177, 866.500 513 C 866.500 284.700, 866.396 269.990, 864.725 261.790 C 853.903 208.678, 811.998 166.334, 761.554 157.537 C 753.777 156.181, 724.311 156.010, 511.619 156.082 C 282.796 156.159, 269.990 156.257, 260.500 157.987 M 332.315 219.464 C 325.838 222.280, 326 220.545, 326 287.334 L 326 347.767 316.250 348.176 C 305.071 348.644, 297.869 351.285, 292.135 357.018 C 283.101 366.053, 280.604 374.362, 281.163 393.522 C 281.526 405.936, 281.722 406.992, 284.819 413.283 C 288.424 420.607, 292.642 424.666, 300.829 428.692 C 305.154 430.819, 308.026 431.402, 316.079 431.790 L 326 432.267 326.004 496.384 C 326.007 557.348, 326.100 560.651, 327.885 563.580 C 331.742 569.904, 340.660 570.569, 345.440 564.889 L 348 561.847 348 496.923 L 348 432 354.750 431.988 C 367.562 431.966, 375.598 428.578, 383.386 419.916 C 390.114 412.432, 391.465 407.401, 391.419 390 C 391.375 373.129, 389.781 367.441, 382.914 359.640 C 376.735 352.620, 368.236 348.876, 357.027 348.237 L 348 347.723 348 286.584 C 348 218.772, 348.346 222.296, 341.401 219.394 C 337.330 217.693, 336.369 217.700, 332.315 219.464 M 507.325 219.459 C 500.743 222.322, 500.745 222.309, 500.933 259.876 C 501.026 278.503, 500.820 294.868, 500.475 296.244 C 499.867 298.665, 499.522 298.760, 489.674 299.221 C 477.428 299.794, 471.837 302.040, 464.826 309.202 C 457.344 316.846, 455.582 322.596, 455.543 339.500 C 455.514 351.978, 455.770 354.146, 457.899 359.441 C 460.901 366.909, 468.016 374.202, 475.764 377.751 C 480.169 379.769, 483.701 380.509, 490.984 380.939 C 499.572 381.447, 500.477 381.689, 500.563 383.500 C 500.615 384.600, 500.735 425.257, 500.829 473.850 L 501 562.200 504.400 565.600 C 508.230 569.430, 512.141 570.013, 517.033 567.483 C 523.283 564.251, 523 568.840, 523 470.643 L 523 381.187 532.777 380.844 C 541.432 380.539, 543.322 380.122, 549.235 377.208 C 556.559 373.599, 562.089 368.057, 565.178 361.231 C 568.163 354.636, 569.545 340.654, 568.173 330.946 C 566.113 316.379, 560.663 308.328, 549.141 302.829 C 543.507 300.140, 541.084 299.603, 532.764 299.203 L 523 298.733 523 262.501 C 523 226.849, 522.965 226.226, 520.832 223.514 C 518.913 221.074, 513.431 217.932, 511.282 218.039 C 510.852 218.061, 509.071 218.700, 507.325 219.459 M 682.388 218.688 C 681.226 218.916, 678.976 220.459, 677.388 222.117 L 674.500 225.131 674.231 299.447 L 673.963 373.763 664.545 374.175 C 656.221 374.539, 654.341 374.988, 648.352 378.043 C 643.440 380.549, 640.536 382.876, 637.798 386.500 C 631.955 394.235, 630.784 398.600, 630.253 414.623 C 629.710 430.975, 630.966 437.191, 636.528 445.674 C 642.701 455.091, 652.118 459.731, 665.885 460.139 L 674 460.380 674 510.239 C 674 564.937, 673.941 564.367, 679.967 567.483 C 686.576 570.901, 694.146 567.885, 695.971 561.107 C 696.684 558.461, 696.953 540.974, 696.772 509.037 L 696.500 460.952 705.706 460.478 C 717.742 459.859, 724.894 457.207, 730.973 451.107 C 739.749 442.301, 742.709 431.040, 741.615 410.625 C 740.937 397.968, 738.700 391.885, 732.087 384.710 C 725.935 378.036, 717.858 374.785, 706.010 374.214 L 696.500 373.756 696.210 299.641 C 695.889 217.725, 696.271 222.265, 689.454 219.416 C 687.590 218.637, 685.712 218.061, 685.282 218.136 C 684.852 218.211, 683.549 218.459, 682.388 218.688 M 485.241 321.995 C 479.510 325.489, 478.007 329.228, 478.007 340 C 478.007 347.768, 478.375 350.103, 480.026 352.810 C 483.483 358.481, 486.192 359, 512.320 359 C 534.967 359, 535.811 358.928, 539.102 356.730 C 544.228 353.305, 545.997 348.886, 545.997 339.500 C 545.997 330.114, 544.228 325.695, 539.102 322.270 C 535.809 320.070, 534.978 320, 512.102 320.004 C 490.315 320.007, 488.249 320.160, 485.241 321.995 M 310.299 371.960 C 304.954 375.218, 303.629 379.042, 303.733 390.894 C 303.836 402.583, 304.902 405.103, 311.071 408.248 C 314.006 409.745, 317.452 409.996, 335 409.993 C 346.275 409.991, 357.101 409.544, 359.057 409.001 C 361.013 408.457, 363.938 406.631, 365.557 404.943 C 368.392 401.987, 368.512 401.472, 368.838 390.948 C 369.142 381.118, 368.957 379.667, 366.992 376.486 C 363.171 370.305, 361.724 370, 336.300 370.004 C 315.451 370.007, 313.226 370.174, 310.299 371.960 M 660.062 397.827 C 654.353 400.889, 652.999 404.755, 653.004 417.984 C 653.007 427.770, 653.311 429.997, 655.026 432.810 C 658.445 438.419, 661.328 439, 685.718 438.998 C 709.680 438.997, 712.169 438.484, 716.429 432.677 C 718.260 430.181, 718.500 428.419, 718.500 417.500 C 718.500 406.581, 718.260 404.819, 716.429 402.323 C 712.161 396.506, 709.702 396.003, 685.484 396.002 C 666.070 396, 663.066 396.216, 660.062 397.827 M 301 618.518 C 283.048 621.660, 268.375 629.591, 255.354 643.191 C 243.600 655.467, 236.471 669.625, 233.520 686.548 C 231.622 697.432, 231.610 704.050, 233.470 715.500 C 237.038 737.472, 247.372 755.352, 264.039 768.394 C 301.459 797.673, 357.395 791.301, 385.475 754.560 C 391.555 746.605, 398.150 733.465, 400.563 724.500 C 402.740 716.413, 403.594 695.764, 402.082 687.771 C 393.015 639.837, 349.506 610.028, 301 618.518 M 497.342 618.409 C 477.872 622.134, 462.890 630.552, 449.369 645.363 C 442.529 652.855, 437.934 660.160, 434.069 669.685 C 429.387 681.225, 428.498 686.413, 428.529 702 C 428.564 718.992, 430.342 726.849, 437.469 741.500 C 455.938 779.469, 503.491 797.042, 543.984 780.863 C 559.221 774.775, 575.074 761.730, 583.808 748.092 C 588.766 740.350, 593.613 728.479, 595.453 719.575 C 597.399 710.151, 597.419 692.640, 595.492 683.546 C 588.969 652.751, 567.074 629.416, 536.297 620.458 C 525.315 617.261, 508.077 616.354, 497.342 618.409 M 689.974 618.940 C 650.436 627.284, 623 661.127, 623 701.553 C 623 744.856, 650.647 778.174, 692.659 785.500 C 731.064 792.197, 768.939 772.774, 785.457 737.911 C 793.431 721.080, 795.508 700.212, 791.070 681.500 C 780.492 636.895, 735.836 609.261, 689.974 618.940 M 299.116 639.044 C 275.480 645.234, 257.498 666.160, 253.897 691.667 C 249.832 720.467, 264.164 747.958, 290.059 761.030 C 301.088 766.597, 318.524 768.443, 332.371 765.510 C 355.552 760.598, 375.172 740.595, 380.559 716.379 C 382.552 707.421, 382.085 691.600, 379.596 683.737 C 374.221 666.760, 361.193 651.032, 346.766 644.103 C 332.072 637.045, 314.054 635.132, 299.116 639.044 M 498.072 638.487 C 486.085 641.210, 477.499 646.159, 468.035 655.803 C 453.677 670.433, 448.452 684.109, 449.237 705 C 449.925 723.306, 455.507 736.382, 468 748.957 C 479.081 760.111, 492.331 765.850, 509 766.714 C 517.839 767.173, 520.759 766.914, 527.455 765.076 C 539.575 761.751, 548.351 756.684, 557.149 747.932 C 563.392 741.722, 565.629 738.593, 569.315 730.911 C 574.675 719.743, 576.121 713.513, 576.082 701.768 C 576.017 682.542, 569.388 667.231, 555.370 653.930 C 548.255 647.179, 542.299 643.593, 532.733 640.301 C 523.540 637.137, 507.671 636.307, 498.072 638.487 M 689.017 639.613 C 677.610 642.984, 670.870 647.025, 662.429 655.557 C 641.082 677.131, 637.867 713.693, 655.058 739.395 C 663.392 751.856, 673.332 759.445, 687.500 764.167 C 696.711 767.237, 716.146 767.461, 725.500 764.606 C 741.324 759.775, 756.720 747.623, 764.275 734 C 779.582 706.399, 772.504 669.585, 748.219 650.482 C 732.118 637.816, 709.284 633.624, 689.017 639.613 M 294.687 666.259 L 291 669.736 291.004 700.118 C 291.007 728.308, 291.146 730.727, 292.926 733.647 C 295.071 737.165, 300.674 739.550, 304.523 738.583 C 307.423 737.856, 350.733 709.161, 353.293 706.272 C 355.733 703.517, 356.535 697.705, 354.989 693.972 C 354.012 691.614, 351.058 689.355, 342.110 684.122 C 301.444 660.343, 301.098 660.212, 294.687 666.259 M 503.703 672.382 C 494.021 675.990, 486.086 684.415, 483.915 693.391 C 482.315 700.012, 483.290 711.687, 485.865 716.736 C 490.680 726.174, 497.590 731.258, 507.835 732.901 C 521.773 735.135, 533.664 729.429, 539.741 717.590 C 541.789 713.602, 542.450 710.627, 542.795 703.847 C 543.183 696.216, 542.944 694.557, 540.767 689.801 C 535.462 678.216, 526.541 671.923, 514.567 671.321 C 510.094 671.097, 506.106 671.486, 503.703 672.382 M 682.763 672.537 C 677.483 675.457, 677 677.883, 677 701.500 C 677 733.088, 675.942 732.002, 706.700 731.996 C 737.281 731.991, 737 732.273, 737 701.500 C 737 670.697, 737.864 671.587, 707.647 671.261 C 689.416 671.065, 685.016 671.290, 682.763 672.537" stroke="none" fill="#000000" fill-rule="evenodd"/>
</svg>